<?xml version="1.0" standalone="no"?>
<!DOCTYPE svg PUBLIC "-//W3C//DTD SVG 20010904//EN"
 "http://www.w3.org/TR/2001/REC-SVG-20010904/DTD/svg10.dtd">
<svg version="1.0" xmlns="http://www.w3.org/2000/svg"
 width="214.000000pt" height="320.000000pt" viewBox="0 0 214.000000 320.000000"
 preserveAspectRatio="xMidYMid meet">

<g transform="translate(0.000000,320.000000) scale(0.100000,-0.100000)"
fill="#000000" stroke="none">
<path d="M1614 3178 c8 -13 20 -53 26 -91 l12 -67 132 -133 131 -134 58 -6
c32 -3 77 -15 100 -26 40 -20 40 -19 -27 48 -48 48 -64 71 -55 76 8 5 10 4 5
-3 -13 -22 10 -12 34 13 15 16 19 25 10 25 -7 0 -11 3 -8 6 3 3 -16 26 -43 51
-43 41 -51 44 -66 32 -16 -13 -17 -12 -4 3 12 16 10 21 -10 42 l-24 25 -27
-26 c-24 -23 -28 -24 -47 -11 -19 14 -20 17 -6 28 13 11 14 10 9 -4 -10 -25
14 -19 32 9 16 25 16 27 -6 50 l-22 24 -25 -30 c-14 -16 -29 -27 -34 -23 -5 3
3 15 18 28 19 17 24 28 19 42 -7 17 -10 16 -36 -12 l-28 -32 -58 59 c-60 61
-86 76 -60 37z m196 -123 c-13 -14 -26 -23 -28 -20 -7 7 29 45 41 45 6 0 0
-11 -13 -25z m79 -61 c-14 -17 -29 -18 -29 -3 0 5 5 7 10 4 6 -3 10 1 10 10 0
9 5 13 10 10 8 -5 7 -11 -1 -21z m-34 -24 c3 -6 -1 -7 -9 -4 -18 7 -21 14 -7
14 6 0 13 -4 16 -10z m71 -40 c-14 -17 -26 -26 -26 -19 0 15 41 61 48 54 2 -2
-7 -18 -22 -35z m-41 10 c3 -6 -1 -7 -9 -4 -18 7 -21 14 -7 14 6 0 13 -4 16
-10z m65 -25 c-13 -14 -26 -23 -28 -20 -7 7 29 45 41 45 6 0 0 -11 -13 -25z
m40 11 c0 -2 -8 -10 -17 -17 -16 -13 -17 -12 -4 4 13 16 21 21 21 13z m10 -20
c0 -2 -8 -10 -17 -17 -16 -13 -17 -12 -4 4 13 16 21 21 21 13z m-2 -33 c-23
-22 -29 -24 -42 -13 -9 7 -16 17 -16 23 0 6 6 2 14 -9 15 -19 15 -19 38 4 12
12 25 22 27 22 3 0 -6 -12 -21 -27z"/>
<path d="M546 2868 c-12 -16 -16 -47 -16 -111 0 -110 8 -127 60 -127 43 0 60
18 60 64 0 19 -5 26 -20 26 -16 0 -20 -7 -20 -31 0 -24 -4 -30 -17 -27 -16 3
-18 15 -18 93 0 78 2 90 18 93 13 3 17 -3 17 -22 0 -19 5 -26 20 -26 15 0 20
7 20 28 0 57 -73 85 -104 40z"/>
<path d="M986 2874 c-20 -20 -23 -213 -4 -232 21 -21 75 -15 92 10 23 32 21
68 -3 68 -14 0 -21 -8 -23 -27 -2 -17 -10 -29 -20 -31 -16 -3 -18 7 -18 93 0
86 2 96 18 93 9 -2 18 -13 20 -26 5 -32 42 -30 42 3 0 52 -69 85 -104 49z"/>
<path d="M1504 2876 c-17 -13 -19 -26 -17 -117 2 -57 8 -108 14 -115 14 -17
71 -18 87 -2 7 7 12 38 12 70 0 55 -1 58 -25 58 -26 0 -33 -18 -14 -37 6 -6 9
-23 7 -39 -2 -21 -8 -29 -23 -29 -19 0 -20 7 -20 90 0 83 1 90 20 90 13 0 21
-8 23 -22 6 -38 32 -28 32 12 0 51 -52 73 -96 41z"/>
<path d="M678 2755 c3 -101 6 -125 18 -125 10 0 14 13 14 50 0 42 3 50 19 50
22 0 31 -19 31 -66 0 -26 4 -34 18 -34 14 0 16 8 14 52 -2 29 -8 57 -13 62 -5
6 -4 15 2 22 6 7 9 34 7 61 l-3 48 -55 3 -55 3 3 -126z m72 80 c18 -21 4 -65
-20 -65 -16 0 -20 7 -20 33 0 48 16 61 40 32z"/>
<path d="M837 2773 c-10 -60 -17 -116 -17 -125 0 -28 27 -21 34 8 9 33 49 31
54 -3 2 -16 10 -23 24 -23 18 0 20 4 14 38 -3 20 -12 76 -18 125 l-12 87 -31
0 -31 0 -17 -107z m62 -45 c1 -11 -6 -18 -19 -18 -20 0 -21 15 -3 90 6 22 7
21 14 -15 4 -22 8 -48 8 -57z"/>
<path d="M1110 2755 c0 -118 1 -125 20 -125 17 0 20 7 20 45 0 25 4 45 9 45 5
0 17 -20 27 -45 12 -32 22 -45 36 -45 15 0 18 4 13 18 -4 9 -16 41 -27 71
l-21 54 27 54 c25 51 25 53 6 53 -15 0 -27 -15 -44 -52 l-24 -53 -1 53 c-1 45
-4 52 -21 52 -19 0 -20 -7 -20 -125z"/>
<path d="M1260 2755 c0 -118 1 -125 20 -125 19 0 20 7 20 125 0 118 -1 125
-20 125 -19 0 -20 -7 -20 -125z"/>
<path d="M1340 2755 c0 -103 3 -125 15 -125 11 0 15 19 17 88 l3 87 24 -87
c19 -69 28 -88 42 -88 16 0 18 12 21 125 3 114 1 125 -14 125 -15 0 -18 -10
-19 -67 l-1 -68 -20 68 c-18 58 -24 67 -44 67 -24 0 -24 0 -24 -125z"/>
<path d="M1650 2760 c0 -5 5 -10 11 -10 5 0 7 5 4 10 -3 6 -8 10 -11 10 -2 0
-4 -4 -4 -10z"/>
<path d="M2120 2691 c0 -6 4 -13 10 -16 6 -3 7 1 4 9 -7 18 -14 21 -14 7z"/>
<path d="M1042 2577 c-12 -14 -35 -107 -29 -114 4 -3 9 9 22 60 2 4 3 16 4 27
0 11 11 25 24 30 15 6 17 9 6 9 -9 1 -21 -5 -27 -12z"/>
<path d="M967 2543 c-13 -21 -19 -83 -8 -83 7 0 10 4 7 9 -3 4 -1 23 4 41 9
32 8 50 -3 33z"/>
<path d="M1059 2538 c-7 -38 -6 -78 2 -78 6 0 8 4 5 9 -4 5 -2 21 4 35 6 16 6
27 0 31 -6 4 -10 5 -11 3z"/>
<path d="M1106 2518 c-21 -29 -20 -58 0 -58 12 0 14 3 6 13 -6 8 -6 20 0 37 9
23 11 24 17 6 6 -17 8 -17 14 -4 12 33 -15 37 -37 6z"/>
<path d="M172 2398 c-16 -16 -16 -190 0 -206 7 -7 27 -12 45 -12 34 0 53 21
53 59 0 28 -28 27 -32 -1 -2 -15 -10 -23 -23 -23 -18 0 -20 7 -20 80 0 69 2
80 18 83 12 3 20 -4 24 -17 6 -24 33 -29 33 -5 0 33 -20 54 -53 54 -18 0 -38
-5 -45 -12z"/>
<path d="M294 2397 c-2 -7 -3 -58 -2 -113 l3 -99 33 -3 c54 -5 62 9 62 108 0
49 -3 95 -6 104 -8 20 -82 22 -90 3z m66 -102 c0 -78 -2 -85 -20 -85 -18 0
-20 7 -20 85 0 78 2 85 20 85 18 0 20 -7 20 -85z"/>
<path d="M420 2295 l0 -115 39 0 c60 0 71 17 71 115 0 98 -11 115 -71 115
l-39 0 0 -115z m75 0 c0 -75 -1 -80 -22 -83 -22 -3 -23 -1 -23 83 0 84 1 86
23 83 21 -3 22 -8 22 -83z"/>
<path d="M560 2295 c0 -96 3 -115 15 -115 12 0 15 19 15 115 0 96 -3 115 -15
115 -12 0 -15 -19 -15 -115z"/>
<path d="M620 2295 c0 -96 3 -115 15 -115 12 0 15 16 16 78 l1 77 20 -77 c16
-63 24 -78 39 -78 18 0 19 9 19 115 0 94 -3 115 -15 115 -11 0 -15 -17 -17
-67 -3 -72 -4 -71 -29 30 -7 27 -15 37 -29 37 -19 0 -20 -7 -20 -115z"/>
<path d="M772 2398 c-16 -16 -16 -190 0 -206 7 -7 27 -12 44 -12 36 0 41 8 46
80 2 40 0 45 -19 48 -21 3 -22 1 -16 -47 5 -47 4 -51 -16 -51 -20 0 -21 5 -21
85 0 77 2 85 19 85 13 0 21 -8 23 -22 5 -36 34 -29 29 7 -1 17 -5 33 -8 38 -7
12 -68 8 -81 -5z"/>
<path d="M940 2295 c0 -96 3 -115 15 -115 12 0 15 19 15 115 0 96 -3 115 -15
115 -12 0 -15 -19 -15 -115z"/>
<path d="M1000 2295 c0 -96 3 -115 15 -115 12 0 15 15 15 76 0 76 12 92 24 32
15 -75 27 -108 41 -108 12 0 15 21 15 115 0 70 -4 115 -10 115 -6 0 -10 -27
-10 -61 0 -72 -12 -70 -30 6 -11 47 -16 55 -37 55 -23 0 -23 -1 -23 -115z"/>
<path d="M1130 2395 c0 -8 9 -15 20 -15 19 0 20 -7 20 -100 0 -82 3 -100 15
-100 12 0 15 18 15 100 0 93 1 100 20 100 11 0 20 7 20 15 0 12 -13 15 -55 15
-42 0 -55 -3 -55 -15z"/>
<path d="M1260 2295 l0 -115 44 0 c30 0 46 5 50 15 4 12 -3 15 -29 15 -33 0
-35 2 -35 35 0 31 3 35 25 35 16 0 25 6 25 15 0 9 -9 15 -25 15 -22 0 -25 4
-25 35 0 33 2 35 33 35 23 0 34 5 34 15 0 11 -12 15 -49 15 l-48 0 0 -115z"/>
<path d="M1390 2295 c0 -96 3 -115 15 -115 11 0 15 12 15 46 0 38 3 45 18 42
12 -2 18 -15 20 -46 2 -28 8 -42 18 -42 18 0 20 80 2 98 -9 9 -9 15 0 24 7 7
12 28 12 48 0 46 -15 60 -62 60 l-38 0 0 -115z m68 57 c4 -23 -13 -52 -29 -52
-5 0 -9 18 -9 41 0 33 3 40 18 37 9 -2 18 -14 20 -26z"/>
<path d="M1510 2403 c0 -5 7 -56 17 -115 16 -105 18 -108 43 -108 25 0 27 3
39 93 7 50 15 102 18 115 4 15 1 22 -10 22 -17 0 -23 -20 -32 -112 -4 -37 -11
-66 -15 -63 -4 2 -10 32 -13 65 -9 84 -17 110 -33 110 -8 0 -14 -3 -14 -7z"/>
<path d="M1650 2295 c0 -96 3 -115 15 -115 12 0 15 19 15 115 0 96 -3 115 -15
115 -12 0 -15 -19 -15 -115z"/>
<path d="M1720 2295 l0 -115 45 0 c33 0 45 4 45 15 0 10 -10 15 -30 15 -28 0
-30 3 -30 35 0 31 3 35 25 35 16 0 25 6 25 15 0 9 -9 15 -25 15 -22 0 -25 4
-25 35 0 32 2 35 30 35 20 0 30 5 30 15 0 11 -12 15 -45 15 l-45 0 0 -115z"/>
<path d="M1830 2395 c0 -8 5 -59 11 -115 11 -93 13 -100 34 -100 19 0 23 7 30
53 l8 52 9 -52 c8 -46 13 -53 32 -53 22 0 24 5 30 87 4 48 10 100 13 115 4 21
2 28 -9 28 -15 0 -28 -56 -28 -121 0 -16 -4 -29 -10 -29 -5 0 -10 24 -10 53 0
65 -9 97 -25 97 -14 0 -25 -52 -25 -118 0 -26 -4 -41 -10 -37 -5 3 -10 23 -10
43 0 63 -12 112 -26 112 -8 0 -14 -7 -14 -15z"/>
<path d="M773 2060 c0 -25 2 -35 4 -22 2 12 2 32 0 45 -2 12 -4 2 -4 -23z"/>
<path d="M796 2087 c3 -10 9 -15 12 -12 3 3 0 11 -7 18 -10 9 -11 8 -5 -6z"/>
<path d="M548 2055 c2 -19 6 -35 8 -35 2 0 4 16 4 35 0 19 -4 35 -8 35 -4 0
-6 -16 -4 -35z"/>
<path d="M692 2060 c0 -19 2 -27 5 -17 2 9 2 25 0 35 -3 9 -5 1 -5 -18z"/>
<path d="M1083 2055 c0 -22 2 -30 4 -17 2 12 2 30 0 40 -3 9 -5 -1 -4 -23z"/>
<path d="M1423 2055 c0 -22 2 -30 4 -17 2 12 2 30 0 40 -3 9 -5 -1 -4 -23z"/>
<path d="M614 2064 c9 -8 13 -21 10 -27 -5 -9 -3 -8 6 0 11 10 11 15 0 28 -7
8 -17 15 -22 15 -5 0 -2 -7 6 -16z"/>
<path d="M842 2050 c0 -19 2 -27 5 -17 2 9 2 25 0 35 -3 9 -5 1 -5 -18z"/>
<path d="M903 2064 c-3 -8 -2 -19 3 -24 5 -5 9 1 9 16 0 28 -3 30 -12 8z"/>
<path d="M957 2059 c4 -13 8 -18 11 -10 2 7 -1 18 -6 23 -8 8 -9 4 -5 -13z"/>
<path d="M993 2064 c-3 -8 -2 -19 3 -24 5 -5 9 1 9 16 0 28 -3 30 -12 8z"/>
<path d="M1175 2058 c4 -13 11 -27 16 -33 5 -5 4 5 -2 23 -12 36 -24 44 -14
10z"/>
<path d="M1230 2068 c0 -9 7 -22 17 -29 15 -13 15 -12 3 11 -17 34 -20 36 -20
18z"/>
<path d="M1321 2075 c0 -13 28 -50 33 -44 3 2 -4 15 -14 29 -11 14 -20 21 -19
15z"/>
<path d="M1376 2055 c8 -37 14 -45 14 -19 0 10 -5 26 -10 34 -8 11 -9 7 -4
-15z"/>
<path d="M1460 2077 c0 -2 15 -14 33 -27 l32 -23 -24 26 c-21 23 -41 35 -41
24z"/>
<path d="M650 2065 c0 -5 5 -17 10 -25 5 -8 10 -10 10 -5 0 6 -5 17 -10 25 -5
8 -10 11 -10 5z"/>
<path d="M1278 2045 c2 -14 6 -25 8 -25 2 0 4 11 4 25 0 14 -4 25 -9 25 -4 0
-6 -11 -3 -25z"/>
<path d="M1550 2050 c0 -11 4 -20 9 -20 5 0 7 9 4 20 -3 11 -7 20 -9 20 -2 0
-4 -9 -4 -20z"/>
<path d="M1041 2034 c0 -11 3 -14 6 -6 3 7 2 16 -1 19 -3 4 -6 -2 -5 -13z"/>
<path d="M1110 2041 c0 -6 4 -13 10 -16 6 -3 7 1 4 9 -7 18 -14 21 -14 7z"/>
<path d="M357 1973 c-12 -12 -7 -40 10 -54 15 -13 15 -12 4 9 -7 13 -10 30 -7
38 6 15 3 18 -7 7z"/>
<path d="M418 1953 c5 -21 7 -23 10 -9 2 10 0 22 -6 28 -6 6 -7 0 -4 -19z"/>
<path d="M1050 1969 c0 -16 22 -40 50 -53 8 -4 5 1 -6 11 -12 10 -26 27 -32
38 -9 15 -11 16 -12 4z"/>
<path d="M1170 1972 c0 -12 39 -60 40 -49 0 5 -9 20 -20 34 -11 14 -20 21 -20
15z"/>
<path d="M542 1940 c0 -19 2 -27 5 -17 2 9 2 25 0 35 -3 9 -5 1 -5 -18z"/>
<path d="M600 1963 c0 -6 8 -17 18 -24 16 -13 16 -13 2 6 -8 11 -16 22 -17 24
-2 2 -3 0 -3 -6z"/>
<path d="M672 1940 c0 -19 2 -27 5 -17 2 9 2 25 0 35 -3 9 -5 1 -5 -18z"/>
<path d="M732 1940 c0 -19 2 -27 5 -17 2 9 2 25 0 35 -3 9 -5 1 -5 -18z"/>
<path d="M827 1949 c4 -13 8 -18 11 -10 2 7 -1 18 -6 23 -8 8 -9 4 -5 -13z"/>
<path d="M861 1963 c0 -4 13 -18 30 -31 16 -13 29 -20 28 -15 0 4 -13 18 -30
31 -16 13 -29 20 -28 15z"/>
<path d="M950 1963 c0 -6 8 -17 18 -24 16 -13 16 -13 2 6 -8 11 -16 22 -17 24
-2 2 -3 0 -3 -6z"/>
<path d="M1283 1948 c1 -15 6 -23 11 -18 4 4 4 16 -2 26 -9 16 -10 14 -9 -8z"/>
<path d="M1320 1940 c0 -16 4 -30 8 -30 5 0 7 14 4 30 -2 17 -6 30 -8 30 -2 0
-4 -13 -4 -30z"/>
<path d="M1380 1946 c0 -14 4 -27 8 -30 5 -3 6 8 4 25 -5 35 -12 38 -12 5z"/>
<path d="M1482 1940 c0 -19 2 -27 5 -17 2 9 2 25 0 35 -3 9 -5 1 -5 -18z"/>
<path d="M1573 1954 c-3 -8 -2 -19 3 -24 5 -5 9 1 9 16 0 28 -3 30 -12 8z"/>
<path d="M1627 1949 c4 -13 8 -18 11 -10 2 7 -1 18 -6 23 -8 8 -9 4 -5 -13z"/>
<path d="M1672 1958 c2 -6 15 -18 29 -27 l24 -15 -24 27 c-26 29 -35 34 -29
15z"/>
<path d="M770 1941 c0 -11 4 -22 9 -25 4 -3 6 6 3 19 -5 30 -12 33 -12 6z"/>
<path d="M1226 1951 c-3 -4 1 -17 10 -27 14 -18 15 -18 5 2 -6 12 -7 24 -4 28
3 3 4 6 0 6 -3 0 -8 -4 -11 -9z"/>
<path d="M1764 1941 c21 -23 26 -26 26 -11 0 5 -10 15 -22 21 -23 12 -23 12
-4 -10z"/>
<path d="M1040 1931 c0 -6 4 -13 10 -16 6 -3 7 1 4 9 -7 18 -14 21 -14 7z"/>
<path d="M422 1904 c10 -10 20 -16 22 -13 3 3 -5 11 -17 18 -21 13 -21 12 -5
-5z"/>
<path d="M813 1556 c-4 -7 -27 -23 -50 -35 -41 -21 -60 -40 -27 -27 26 10 11
-11 -25 -36 -55 -37 -75 -70 -67 -112 8 -44 17 -45 103 -6 75 34 83 36 83 16
0 -8 -22 -30 -50 -50 -58 -42 -101 -97 -141 -181 -85 -180 -42 -394 107 -540
37 -36 60 -66 54 -70 -5 -3 -10 -12 -10 -18 0 -7 7 -3 15 7 14 19 16 19 70 -6
l55 -25 -81 -6 c-45 -3 -86 -10 -92 -16 -6 -6 -17 -7 -26 -2 -9 5 -25 5 -35 1
-62 -22 114 -40 399 -40 199 0 401 12 413 25 19 19 -81 33 -103 15 -13 -10
-19 -10 -33 4 -14 12 -38 16 -93 16 l-73 0 69 34 c104 50 215 175 246 278 56
186 10 359 -130 491 -75 71 -129 100 -231 124 -79 18 -150 13 -243 -17 -76
-26 -96 -20 -52 16 17 14 29 32 27 42 -2 14 -1 14 7 3 8 -12 16 -10 52 13 l42
28 -31 30 c-22 22 -41 31 -69 33 -70 4 -74 5 -68 15 3 6 4 10 1 10 -3 0 -9 -6
-13 -14z m7 -36 c-20 -13 -33 -13 -25 0 3 6 14 10 23 10 15 0 15 -2 2 -10z
m333 -185 c171 -36 297 -168 328 -344 30 -166 -66 -353 -221 -431 -356 -180
-736 198 -560 557 55 110 170 198 291 222 64 13 87 12 162 -4z m-303 -33
c-237 -160 -277 -464 -88 -670 l52 -57 -52 50 c-35 32 -66 76 -90 124 -35 71
-37 80 -37 175 0 122 23 193 89 277 37 47 127 120 145 118 3 0 -5 -8 -19 -17z
m531 -62 c53 -53 105 -146 113 -206 6 -38 5 -38 -8 7 -27 93 -84 176 -166 242
-23 19 -27 24 -11 17 14 -7 46 -34 72 -60z m126 -342 c-2 -18 -4 -4 -4 32 0
36 2 50 4 33 2 -18 2 -48 0 -65z m-10 -70 c-3 -7 -5 -2 -5 12 0 14 2 19 5 13
2 -7 2 -19 0 -25z m-26 -75 c-12 -20 -14 -14 -5 12 4 9 9 14 11 11 3 -2 0 -13
-6 -23z m-41 -77 c0 -2 -8 -10 -17 -17 -16 -13 -17 -12 -4 4 13 16 21 21 21
13z"/>
<path d="M1002 1310 c-300 -63 -423 -423 -221 -645 33 -36 74 -66 117 -87 63
-31 73 -33 172 -33 94 0 111 3 160 27 108 53 181 138 214 249 42 141 -4 306
-112 400 -83 74 -224 111 -330 89z m208 -42 c0 -5 4 -6 10 -3 18 11 140 -71
140 -95 0 -7 -56 -22 -64 -17 -2 1 -15 -12 -30 -29 -26 -32 -34 -76 -17 -103
8 -12 12 -10 22 12 7 15 18 27 26 27 18 0 17 -16 -2 -24 -16 -6 -16 -50 0 -76
8 -13 -6 -12 -48 5 -13 6 -16 4 -11 -10 6 -14 3 -16 -17 -10 -13 4 -32 14 -41
23 -10 8 -18 10 -18 5 0 -20 -71 -23 -102 -5 -27 15 -27 18 -11 30 15 10 15
16 5 32 -16 27 -16 27 16 26 15 0 33 -8 40 -16 8 -8 11 -9 7 -3 -4 9 -1 11 9
7 9 -3 13 -11 9 -17 -4 -6 -1 -7 6 -3 7 5 10 15 7 25 -5 13 -3 12 8 -2 14 -18
15 -18 25 2 17 30 13 44 -9 38 -11 -3 -20 -1 -20 4 0 15 69 41 91 34 14 -5 19
-2 19 10 0 13 -6 16 -25 11 -24 -6 -35 7 -15 19 21 13 10 27 -17 20 -23 -5
-25 -4 -14 9 16 19 1 22 -17 4 -14 -14 -16 -32 -3 -23 6 3 15 -4 21 -15 10
-18 7 -22 -22 -34 -28 -12 -34 -12 -45 3 -11 14 -12 14 -13 -5 0 -16 -11 -26
-40 -38 -22 -9 -42 -16 -43 -16 -2 0 -1 15 1 33 4 39 -14 90 -31 84 -6 -2 -13
-12 -13 -23 -1 -10 -3 -35 -4 -54 l-3 -35 -7 35 c-4 21 -8 27 -9 14 -1 -26
-24 -37 -41 -21 -10 10 -10 8 -1 -10 14 -28 14 -33 -4 -33 -8 0 -15 6 -15 14
0 7 -7 19 -16 27 -13 11 -14 9 -9 -14 8 -31 7 -32 -31 -12 -16 8 -25 15 -20
15 5 0 6 3 3 7 -4 3 -16 -2 -27 -12 -11 -10 -23 -15 -27 -11 -4 4 6 18 21 31
16 14 24 25 18 25 -6 0 -14 -4 -17 -10 -10 -15 -25 -12 -25 6 0 25 39 73 81
100 42 26 54 30 44 14 -3 -5 -1 -10 5 -10 6 0 13 6 16 14 3 8 12 12 20 9 8 -3
22 3 30 13 12 15 15 15 11 3 -5 -14 3 -16 56 -12 34 2 70 5 79 7 10 2 35 0 55
-4 32 -8 35 -7 21 4 -24 17 -23 25 2 19 11 -3 20 -10 20 -15z m195 -212 c14
-19 28 -49 32 -67 11 -58 8 -122 -5 -127 -7 -2 -10 -13 -6 -28 6 -24 -9 -34
-21 -14 -3 6 -15 10 -25 10 -11 0 -24 9 -30 20 -7 14 -7 20 0 20 5 0 10 -4 10
-10 0 -17 36 24 37 43 1 11 -11 26 -30 37 l-32 20 27 0 c16 0 33 -9 43 -22 10
-13 15 -17 13 -9 -2 8 -16 24 -31 35 -22 16 -31 18 -51 8 l-26 -11 7 44 c3 29
1 50 -6 59 -10 12 -7 15 21 19 18 2 36 5 40 5 4 1 19 -13 33 -32z m-445 9 c0
-8 -4 -15 -10 -15 -5 0 -10 7 -10 15 0 8 5 15 10 15 6 0 10 -7 10 -15z m-110
-9 c0 -17 -14 -29 -23 -20 -8 8 3 34 14 34 5 0 9 -6 9 -14z m-13 -39 c3 -6 1
-13 -5 -15 -19 -6 -14 -22 8 -22 11 0 20 -4 20 -10 0 -13 -56 -13 -80 0 -19
10 -45 70 -30 70 4 0 17 -12 28 -27 11 -16 23 -25 27 -21 4 4 -2 17 -14 29
-12 13 -21 26 -21 30 0 10 58 -19 67 -34z m200 24 c10 -16 9 -20 -4 -25 -9 -4
-21 1 -30 11 -13 17 -13 17 -11 -1 2 -10 -3 -21 -11 -24 -8 -3 -11 0 -7 7 4 6
1 11 -8 11 -41 0 0 29 54 39 3 1 11 -8 17 -18z m-17 -62 c0 -5 -7 -9 -15 -9
-15 0 -20 12 -9 23 8 8 24 -1 24 -14z m-240 -49 c14 0 16 -7 12 -50 -3 -35 0
-57 11 -74 15 -23 15 -24 -6 -28 -69 -13 -95 27 -96 146 l-1 70 31 -32 c17
-18 39 -32 49 -32z m160 21 c0 -6 -4 -13 -10 -16 -5 -3 -10 1 -10 9 0 9 5 16
10 16 6 0 10 -4 10 -9z m-30 -46 c0 -5 -5 -3 -10 5 -5 8 -10 20 -10 25 0 6 5
3 10 -5 5 -8 10 -19 10 -25z m180 25 c0 -5 -9 -10 -20 -10 -11 0 -20 5 -20 10
0 6 9 10 20 10 11 0 20 -4 20 -10z m214 -16 c20 -19 20 -20 1 -28 -11 -4 -15
0 -13 11 2 10 -2 18 -9 18 -18 0 -28 15 -10 15 8 0 23 -7 31 -16z m-469 -4
c-3 -5 1 -10 9 -10 9 0 16 -5 16 -11 0 -6 9 -8 20 -4 16 5 20 2 20 -17 0 -21
-5 -23 -50 -26 -50 -3 -50 -3 -50 27 0 18 7 34 18 40 22 13 25 13 17 1z m237
-14 c10 -7 15 -20 12 -33 -4 -15 0 -22 15 -26 12 -3 19 -2 16 3 -3 4 2 10 10
14 8 3 17 0 21 -6 8 -13 -24 -40 -37 -32 -5 3 -9 0 -9 -7 0 -7 -3 -9 -7 -6 -3
4 -14 0 -24 -9 -17 -15 -47 -10 -48 9 -1 4 -2 6 -4 5 -5 -5 -44 37 -56 60 -16
31 -7 39 21 18 13 -9 33 -23 46 -32 12 -9 26 -13 30 -9 4 4 2 10 -4 12 -6 2
-20 10 -30 18 -16 13 -17 16 -4 25 20 13 31 12 52 -4z m203 -8 c15 -22 14 -23
-17 -31 -18 -5 -38 -13 -44 -18 -23 -19 -50 -18 -50 1 0 10 4 16 8 14 5 -3 13
8 19 25 9 25 17 31 39 31 19 0 35 -8 45 -22z m55 -18 c0 -5 -4 -10 -10 -10 -5
0 -10 5 -10 10 0 6 5 10 10 10 6 0 10 -4 10 -10z m-380 -55 c0 -5 -5 -3 -10 5
-5 8 -10 20 -10 25 0 6 5 3 10 -5 5 -8 10 -19 10 -25z m365 19 c32 -15 52 -41
40 -52 -3 -3 -14 3 -24 12 -11 10 -39 20 -63 22 -53 7 -58 11 -27 23 33 13 37
13 74 -5z m-435 -23 c0 -6 -4 -13 -10 -16 -5 -3 -10 -11 -10 -16 0 -6 4 -8 9
-4 5 3 12 1 15 -3 3 -5 15 -8 28 -6 13 1 30 3 38 3 13 1 13 2 0 11 -12 8 -10
10 9 10 16 0 21 -4 18 -14 -3 -8 1 -13 11 -12 10 1 19 -10 23 -29 l7 -30 1 33
c0 18 6 32 14 32 6 0 23 3 37 7 14 3 22 3 18 -2 -18 -19 86 -75 105 -56 5 5
15 7 23 4 9 -3 12 4 11 23 -2 28 -1 29 52 29 83 0 102 -31 58 -96 -27 -40 -76
-51 -104 -23 -14 13 -29 15 -80 11 -36 -4 -65 -2 -68 4 -4 5 -11 7 -16 4 -5
-4 1 -21 14 -38 23 -31 26 -67 5 -67 -5 0 -8 7 -4 15 5 13 -10 15 -98 15 -98
0 -105 1 -143 29 -43 31 -76 72 -92 113 -8 22 -7 24 17 21 32 -4 98 27 95 45
-2 7 2 12 7 12 6 0 10 -4 10 -9z m120 -11 c8 -5 11 -10 5 -10 -5 0 -17 5 -25
10 -8 5 -10 10 -5 10 6 0 17 -5 25 -10z"/>
<path d="M920 1229 c0 -7 3 -9 6 -6 4 3 16 2 26 -4 16 -9 19 -8 16 3 -6 17
-48 23 -48 7z"/>
<path d="M876 1194 c-8 -22 -8 -52 2 -57 4 -3 8 13 9 34 1 42 -1 48 -11 23z"/>
<path d="M907 1189 c6 -6 9 -17 7 -24 -3 -7 0 -16 7 -21 8 -5 10 -3 5 5 -5 8
-2 11 9 9 10 -2 24 8 33 22 14 21 14 23 2 13 -10 -8 -21 -9 -30 -3 -22 14 -47
13 -33 -1z"/>
<path d="M1080 1012 c0 -13 48 -33 54 -23 3 4 -6 13 -20 20 -30 13 -34 14 -34
3z"/>
<path d="M1396 864 c-9 -9 -14 -19 -11 -22 3 -3 13 2 22 11 9 9 14 19 11 22
-3 3 -13 -2 -22 -11z"/>
<path d="M1060 736 c0 -22 3 -27 11 -19 8 8 8 16 0 30 -9 16 -10 14 -11 -11z"/>
<path d="M967 665 c3 -8 9 -13 13 -10 5 3 10 -3 12 -12 3 -16 4 -16 10 -2 4
11 -1 20 -17 27 -20 9 -23 9 -18 -3z"/>
<path d="M1025 649 c-4 -6 -4 -13 -1 -16 3 -4 6 -1 6 6 0 8 6 11 16 7 8 -3 12
-2 9 4 -8 13 -22 13 -30 -1z"/>
<path d="M1330 1552 c0 -8 -19 -12 -49 -12 -48 0 -121 -30 -121 -50 0 -5 34
-30 75 -55 53 -33 75 -53 75 -67 0 -16 3 -18 14 -9 10 9 31 3 91 -25 85 -41
95 -39 95 25 0 33 -29 71 -90 114 -15 11 -18 16 -7 13 30 -9 19 13 -15 30 -18
9 -41 23 -50 32 -12 9 -18 11 -18 4z m30 -32 c13 -8 13 -10 -2 -10 -9 0 -20 5
-23 10 -8 13 5 13 25 0z"/>
<path d="M1050 1500 c0 -11 65 -24 85 -16 32 12 13 26 -35 26 -27 0 -50 -4
-50 -10z"/>
<path d="M1320 506 c0 -2 8 -10 18 -17 15 -13 16 -12 3 4 -13 16 -21 21 -21
13z"/>
<path d="M0 156 l0 -156 1070 0 1070 0 0 157 0 156 -327 -9 c-418 -11 -999
-11 -1455 0 l-358 9 0 -157z m582 -3 l1 -38 4 38 c7 65 42 39 43 -32 0 -19 -3
-22 -11 -14 -8 8 -20 8 -36 2 -34 -13 -43 -4 -43 42 0 32 3 39 20 39 16 0 20
-7 22 -37z m113 3 c1 -16 6 -31 13 -34 8 -2 12 9 12 32 0 30 4 36 21 36 13 0
18 -4 13 -12 -12 -19 -14 -58 -3 -58 6 0 8 -4 4 -10 -3 -5 -22 -8 -43 -7 -35
2 -37 3 -35 36 1 24 -1 30 -8 20 -5 -8 -9 -22 -9 -31 0 -10 -4 -18 -10 -18 -5
0 -10 8 -10 18 0 9 -3 27 -6 39 -5 19 -2 21 28 20 29 -2 33 -5 33 -31z m105
-1 c0 -19 4 -35 10 -35 5 0 12 16 16 35 7 41 34 48 34 9 0 -14 4 -23 10 -19 6
3 10 15 10 26 0 31 30 23 31 -8 l2 -28 4 26 c4 24 8 26 59 27 54 0 54 0 56
-31 l1 -32 4 33 c5 37 32 45 34 10 2 -22 2 -22 6 -2 3 18 11 21 54 21 l49 0 0
-38 c0 -37 -19 -67 -21 -32 0 14 -2 15 -7 3 -4 -8 -14 -15 -22 -15 -8 0 -18 7
-22 15 -6 13 -7 12 -7 -2 -1 -14 -17 -17 -41 -8 -3 1 -9 1 -15 0 -30 -6 -95
-5 -95 3 0 4 -6 5 -12 0 -19 -11 -38 -12 -38 -2 0 6 -6 7 -12 2 -20 -12 -38
-12 -38 -1 0 7 -5 7 -12 1 -7 -5 -22 -9 -33 -9 -16 1 -21 9 -23 44 -2 25 1 42
7 42 6 0 11 -16 11 -35z m430 23 c0 -9 4 -8 10 2 9 13 11 13 20 0 5 -8 10 -10
10 -4 0 8 23 12 65 11 l66 0 -3 -40 -3 -40 -58 -1 c-42 -1 -61 3 -68 14 -7 13
-8 13 -9 -1 0 -11 -9 -15 -27 -14 -25 1 -28 5 -31 43 -2 33 0 42 12 42 9 0 16
-6 16 -12z m280 2 c0 -6 -6 -10 -12 -10 -9 0 -8 -4 2 -10 12 -8 13 -11 1 -19
-9 -6 -10 -11 -2 -15 16 -10 14 -26 -4 -26 -11 0 -15 12 -16 43 -1 23 -3 33
-6 22 -2 -11 -6 -29 -8 -41 -3 -14 -12 -20 -27 -19 -19 1 -23 8 -26 41 l-3 39
51 3 c28 1 50 -3 50 -8z m30 -25 c0 -19 5 -35 10 -35 6 0 10 16 10 35 0 19 5
35 10 35 6 0 10 -16 10 -35 0 -19 5 -35 11 -35 5 0 8 -4 5 -9 -3 -5 -20 -8
-38 -7 -31 1 -33 4 -36 44 -2 25 1 42 7 42 6 0 11 -16 11 -35z"/>
<path d="M956 164 c-3 -9 -2 -23 4 -32 7 -14 9 -10 10 16 0 35 -5 41 -14 16z"/>
<path d="M1284 150 c0 -10 6 -16 13 -13 7 3 13 9 13 13 0 4 -6 10 -13 13 -7 3
-13 -3 -13 -13z"/>
<path d="M1332 145 c0 -16 2 -22 5 -12 2 9 2 23 0 30 -3 6 -5 -1 -5 -18z"/>
<path d="M1382 150 c0 -14 2 -19 5 -12 2 6 2 18 0 25 -3 6 -5 1 -5 -13z"/>
</g>
</svg>
