<?xml version="1.0" standalone="no"?>
<!DOCTYPE svg PUBLIC "-//W3C//DTD SVG 20010904//EN"
 "http://www.w3.org/TR/2001/REC-SVG-20010904/DTD/svg10.dtd">
<svg version="1.0" xmlns="http://www.w3.org/2000/svg"
 width="500.000000pt" height="500.000000pt" viewBox="0 0 500.000000 500.000000"
 preserveAspectRatio="xMidYMid meet">

<g transform="translate(0.000000,500.000000) scale(0.100000,-0.100000)"
fill="#000000" stroke="none">
<path d="M2337 4040 c-54 -33 -100 -60 -103 -60 -3 0 -10 -5 -17 -10 -7 -6
-50 -34 -97 -62 -47 -28 -146 -89 -220 -135 -74 -46 -142 -86 -150 -90 -14 -7
-189 -112 -220 -133 -8 -6 -23 -13 -32 -16 -10 -4 -18 -10 -18 -14 0 -4 -8
-11 -17 -14 -10 -3 -27 -12 -38 -19 -26 -15 -194 -118 -220 -134 -11 -7 -27
-15 -35 -19 -8 -4 -17 -11 -20 -14 -5 -6 -44 -30 -129 -76 -19 -11 -44 -27
-55 -36 -11 -10 -28 -20 -38 -24 -10 -3 -18 -9 -18 -13 0 -4 -11 -20 -24 -36
-31 -36 -66 -107 -66 -133 0 -11 -4 -24 -10 -27 -12 -8 -13 -105 -1 -105 5 0
14 -13 19 -29 14 -39 77 -108 121 -132 20 -11 50 -28 66 -39 17 -11 37 -23 45
-27 8 -4 57 -33 108 -65 51 -32 97 -58 101 -58 5 0 14 -6 20 -14 7 -8 26 -22
44 -31 39 -20 49 -26 162 -95 126 -77 128 -78 145 -87 13 -6 267 -162 300
-183 8 -6 22 -13 30 -17 8 -4 74 -43 145 -87 72 -45 147 -90 168 -101 20 -11
37 -23 37 -27 0 -5 5 -8 10 -8 6 0 36 -16 66 -35 106 -68 173 -65 281 13 17
12 33 22 36 22 3 0 78 45 167 100 88 55 163 100 167 100 3 0 21 11 39 25 18
14 35 25 39 25 5 0 170 100 215 130 8 6 23 13 33 16 9 4 17 9 17 13 0 4 17 15
38 26 20 10 51 29 69 42 17 13 35 23 39 23 4 0 22 11 40 25 18 14 35 25 38 25
4 0 251 150 296 180 8 6 22 13 30 17 32 13 80 55 80 68 0 16 -83 81 -143 113
-21 11 -47 18 -57 15 -35 -9 -22 -38 35 -73 30 -19 54 -42 55 -51 0 -10 -28
-34 -72 -60 -78 -45 -366 -221 -408 -248 -41 -26 -64 -40 -80 -48 -8 -4 -56
-33 -107 -65 -51 -32 -97 -58 -101 -58 -5 0 -15 -6 -21 -14 -7 -8 -26 -21 -44
-30 -18 -9 -39 -21 -47 -26 -87 -56 -211 -130 -215 -130 -4 0 -21 -11 -39 -25
-18 -14 -36 -25 -40 -25 -3 0 -41 -22 -84 -48 -102 -64 -130 -73 -170 -56 -18
7 -32 17 -32 23 0 5 -8 17 -17 27 -14 14 -18 35 -18 99 0 75 2 85 29 121 45
60 91 99 158 137 36 20 257 154 308 187 8 5 29 17 47 26 18 9 37 22 44 30 6 8
15 14 20 14 6 0 135 76 219 130 8 5 29 17 47 26 18 9 37 22 44 30 6 8 15 14
19 14 5 0 63 34 129 75 67 41 126 75 131 75 6 0 10 4 10 8 0 5 12 14 28 21 46
21 235 142 265 169 23 22 27 34 27 77 0 44 -4 55 -27 76 -26 22 -208 139 -218
139 -2 0 -66 39 -142 86 -76 48 -153 93 -170 102 -18 9 -33 19 -33 24 0 4 -5
8 -10 8 -6 0 -65 34 -131 75 -67 41 -123 75 -125 75 -5 0 -260 156 -296 181
-15 11 -30 19 -32 19 -3 0 -54 30 -113 66 -145 90 -171 104 -191 104 -10 0
-62 -27 -115 -60z m133 -10 c0 -5 4 -10 10 -10 13 0 114 -62 118 -72 2 -4 8
-8 13 -8 9 0 73 -38 135 -78 10 -7 27 -15 37 -18 9 -4 17 -10 17 -14 0 -4 8
-10 18 -14 19 -6 40 -19 89 -53 17 -13 34 -23 38 -23 4 0 128 -74 215 -130 8
-5 29 -17 47 -26 18 -9 37 -22 44 -30 6 -8 15 -14 20 -14 6 0 135 -76 219
-130 8 -5 29 -17 47 -26 18 -9 37 -22 44 -30 6 -8 18 -14 25 -14 8 0 14 -3 14
-7 0 -5 18 -17 40 -27 22 -11 40 -23 40 -28 0 -4 5 -8 12 -8 10 0 105 -56 118
-70 3 -3 14 -10 25 -16 24 -13 32 -59 14 -80 -7 -8 -31 -24 -53 -35 -44 -21
-78 -41 -86 -50 -3 -3 -21 -14 -40 -25 -19 -10 -37 -22 -40 -25 -3 -3 -21 -14
-40 -25 -19 -10 -37 -22 -40 -25 -3 -3 -12 -9 -20 -13 -20 -9 -40 -21 -132
-78 -42 -27 -81 -48 -87 -48 -6 0 -11 -4 -11 -10 0 -5 -5 -10 -11 -10 -6 0
-25 -11 -43 -25 -18 -14 -36 -25 -39 -25 -4 0 -61 -34 -128 -75 -66 -41 -122
-75 -125 -75 -2 0 -58 -34 -125 -75 -66 -41 -122 -75 -124 -75 -18 0 -231
-143 -272 -183 -64 -61 -103 -139 -103 -206 0 -82 -4 -85 -65 -45 -30 19 -57
34 -61 34 -4 0 -22 11 -40 25 -18 14 -35 25 -38 25 -2 0 -59 34 -125 75 -67
41 -124 75 -127 75 -2 0 -17 8 -32 19 -45 30 -292 181 -298 181 -2 0 -10 5
-17 11 -7 6 -34 24 -62 40 -27 16 -57 33 -65 39 -8 5 -60 36 -115 70 -55 33
-107 65 -115 70 -8 5 -29 17 -47 26 -18 9 -37 22 -44 30 -6 8 -16 14 -21 14
-25 0 -169 104 -187 136 -23 38 -30 157 -11 169 6 3 10 14 10 23 0 22 67 94
103 112 24 12 31 12 50 0 12 -7 33 -20 47 -27 14 -8 48 -28 75 -44 28 -17 58
-33 68 -36 9 -3 17 -9 17 -13 0 -4 8 -10 18 -13 9 -3 40 -20 67 -36 28 -17 57
-34 65 -38 8 -4 38 -21 65 -38 28 -17 57 -35 65 -39 8 -4 24 -12 35 -19 17
-11 60 -36 140 -84 11 -7 27 -15 35 -19 8 -5 38 -23 67 -41 29 -18 55 -33 58
-33 3 0 42 -22 86 -50 44 -27 82 -50 84 -50 2 0 41 -22 86 -49 69 -42 85 -48
100 -38 41 25 22 45 -123 125 -20 12 -54 32 -75 45 -21 13 -45 27 -53 30 -8 4
-37 21 -65 38 -27 16 -58 33 -67 36 -10 3 -18 9 -18 13 0 4 -8 10 -17 13 -10
3 -40 20 -68 36 -27 17 -57 34 -65 38 -8 3 -37 21 -65 38 -27 17 -57 34 -65
38 -8 4 -37 21 -65 37 -27 17 -57 34 -65 37 -8 4 -17 9 -20 12 -3 3 -14 11
-25 17 -97 53 -147 82 -190 109 -27 17 -58 34 -68 38 -32 12 -15 36 53 73 19
10 37 22 40 25 3 3 25 17 50 30 52 30 188 111 423 256 92 57 169 103 171 103
4 0 261 157 296 180 8 6 23 13 33 16 9 4 17 10 17 14 0 4 8 10 18 14 9 3 26
11 36 18 63 42 126 78 136 78 5 0 10 4 10 8 0 8 56 40 73 41 4 1 7 -3 7 -9z"/>
<path d="M1049 2376 c-77 -40 -183 -132 -195 -168 -3 -10 -10 -18 -15 -18 -5
0 -9 -8 -9 -17 0 -10 -7 -31 -15 -47 -19 -36 -19 -125 0 -150 8 -11 15 -26 15
-33 0 -23 62 -84 133 -129 37 -24 70 -44 74 -44 3 0 20 -10 37 -23 17 -12 48
-31 69 -42 20 -11 37 -23 37 -27 0 -5 5 -8 10 -8 6 0 64 -34 130 -75 66 -41
122 -75 124 -75 2 0 77 -45 166 -100 89 -55 163 -100 165 -100 2 0 76 -45 165
-100 88 -55 163 -100 167 -100 3 0 21 -11 39 -25 18 -14 35 -25 39 -25 9 0
140 -84 143 -92 2 -4 8 -8 14 -8 6 0 26 -11 44 -25 18 -14 39 -25 48 -25 8 0
18 -4 21 -10 3 -5 31 -10 60 -10 56 0 85 12 200 85 27 17 57 35 65 38 8 4 30
16 48 27 18 11 38 18 43 15 5 -4 9 -65 9 -136 0 -106 3 -131 15 -135 9 -4 72
30 154 81 161 101 151 83 151 276 l0 129 70 45 c39 25 73 45 77 45 3 0 21 11
39 25 18 14 35 25 38 25 4 0 42 23 86 50 44 28 84 50 90 50 5 0 10 4 10 8 0 7
31 26 111 67 10 5 19 13 19 17 0 5 5 8 10 8 6 0 46 23 90 50 44 28 84 50 89
50 5 0 11 4 13 8 2 4 20 18 41 31 20 12 37 29 37 36 0 17 -50 65 -67 65 -6 0
-13 3 -15 8 -8 18 -107 72 -122 66 -32 -12 -16 -42 44 -85 33 -23 60 -44 60
-46 0 -7 -44 -42 -53 -43 -5 0 -23 -11 -41 -25 -18 -14 -36 -25 -40 -25 -4 0
-22 -11 -40 -25 -18 -14 -36 -25 -39 -25 -4 0 -79 -45 -167 -100 -89 -55 -163
-100 -165 -100 -2 0 -41 -23 -86 -51 l-82 -51 -18 23 c-10 13 -19 29 -19 35 0
6 -20 30 -45 53 -38 35 -48 41 -60 31 -24 -20 -18 -41 22 -82 33 -33 38 -46
44 -105 9 -81 11 -270 3 -298 -6 -22 -170 -128 -185 -119 -5 3 -9 55 -9 115 0
61 -5 119 -10 130 -14 26 -42 24 -90 -6 -22 -14 -44 -25 -50 -25 -5 0 -10 -3
-10 -8 0 -4 -17 -16 -37 -27 -21 -11 -60 -33 -88 -50 -121 -76 -155 -81 -203
-34 -22 21 -33 44 -38 75 -7 52 3 154 17 154 5 0 9 6 9 13 1 6 8 21 18 32 19
23 127 105 138 105 4 0 22 11 40 25 18 14 35 25 38 25 5 0 200 118 266 160 8
6 22 13 30 17 8 4 17 9 20 12 3 3 21 15 40 25 19 11 37 22 40 25 4 5 35 23 95
55 11 6 22 13 25 16 8 9 139 90 145 90 4 0 21 11 39 25 18 14 36 25 39 25 3 0
78 45 167 100 88 55 163 100 166 100 3 0 20 10 37 23 18 12 48 30 67 41 61 32
90 73 90 126 0 38 -5 51 -29 74 -18 17 -36 26 -45 23 -20 -8 -21 -51 -1 -67
28 -23 18 -58 -27 -91 -24 -17 -50 -34 -58 -37 -8 -3 -68 -39 -133 -79 -65
-40 -121 -73 -123 -73 -3 0 -20 -11 -38 -25 -18 -14 -36 -25 -39 -25 -6 0
-216 -126 -267 -160 -8 -6 -22 -13 -30 -17 -13 -6 -180 -108 -220 -134 -8 -5
-23 -12 -32 -15 -10 -4 -18 -10 -18 -14 0 -4 -8 -10 -17 -14 -10 -3 -27 -11
-37 -18 -63 -42 -126 -78 -136 -78 -5 0 -10 -4 -10 -8 0 -7 -31 -26 -111 -67
-10 -5 -19 -13 -19 -17 0 -5 -5 -8 -11 -8 -6 0 -27 -12 -47 -27 -91 -68 -142
-158 -142 -253 0 -32 -4 -61 -10 -65 -5 -3 -46 17 -90 45 -45 27 -83 50 -86
50 -2 0 -76 45 -164 100 -89 55 -164 100 -167 100 -3 0 -20 10 -37 23 -17 12
-48 31 -68 42 -21 11 -38 23 -38 27 0 5 -5 8 -10 8 -6 0 -46 22 -90 50 -44 27
-84 50 -90 50 -5 0 -10 4 -10 9 0 5 -8 11 -17 15 -10 3 -25 10 -33 16 -35 23
-341 210 -344 210 -3 0 -42 23 -88 52 -113 70 -138 106 -138 199 0 62 7 80 53
141 24 32 138 118 156 118 3 0 12 9 19 21 10 16 10 24 1 35 -14 17 -17 17 -50
0z"/>
</g>
</svg>
